Coordinates
version=1
nRows=17
nColumns=36
inDegrees=yes

Units are S.I. units (second, meters, Newtons, ...)
If the header above contains a line with 'inDegrees', this indicates whether rotational values are in degrees (yes) or radians (no).

endheader
time	pelvis_tilt	pelvis_list	pelvis_rotation	pelvis_tx	pelvis_ty	pelvis_tz	hip_flexion_r	hip_adduction_r	hip_rotation_r	knee_angle_r	knee_angle_r_beta	ankle_angle_r	subtalar_angle_r	mtp_angle_r	hip_flexion_l	hip_adduction_l	hip_rotation_l	knee_angle_l	knee_angle_l_beta	ankle_angle_l	subtalar_angle_l	mtp_angle_l	lumbar_extension	lumbar_bending	lumbar_rotation	arm_flex_r	arm_add_r	arm_rot_r	elbow_flex_r	pro_sup_r	arm_flex_l	arm_add_l	arm_rot_l	elbow_flex_l	pro_sup_l
      5.68000000	    -21.74088570	     -0.72651946	     -1.45897480	     -0.26226976	      0.88558783	     -0.59002418	     42.58291240	     -4.52344898	     -0.33770242	     31.84712324	      0.55583716	      6.06654124	    -16.76645324	     -7.49999987	     43.57885129	     -5.92684666	      3.30846059	     34.48339141	      0.60184872	      8.48446924	    -11.00883452	     -7.49999987	    -11.01096965	      1.71462393	     -3.30951017	     11.69861392	    -21.85611501	     16.04268688	    129.97535796	    104.01363299	      7.80086731	    -20.65994327	      4.92690996	    126.41794976	    101.83387496
      5.69000000	    -22.56009005	     -0.75221564	     -1.46028004	     -0.26759736	      0.87938272	     -0.58998240	     44.88130192	     -4.53543467	     -0.20710279	     33.93379977	      0.59225653	      6.70124422	    -16.93572611	     -7.49999987	     45.85099562	     -6.13545377	      2.99827457	     36.39956681	      0.63529229	      9.42878848	    -10.33686893	     -7.49999987	    -11.16112064	      1.79756430	     -3.17629641	     13.19844239	    -22.20405585	     16.53867312	    129.81608688	    103.86587468	      9.33766339	    -21.14000482	      5.41722938	    126.21413698	    101.85359251
      5.70000000	    -23.07623397	     -0.81836124	     -1.46031706	     -0.27286677	      0.87325188	     -0.59000917	     46.84651817	     -4.55950190	     -0.25428045	     35.99354510	      0.62820587	      7.16315294	    -17.28019392	     -7.49999987	     47.83697299	     -6.36986570	      2.70696874	     38.37692299	      0.66980366	      9.95928911	    -10.28514193	     -7.49999987	    -11.68621813	      1.93909969	     -3.01426029	     14.87286763	    -22.50144863	     16.86672334	    129.69554564	    103.82907221	     10.99029917	    -21.60945127	      5.75359968	    126.04853373	    101.84839152
      5.71000000	    -24.00275679	     -0.86982685	     -1.48103730	     -0.27827139	      0.86610207	     -0.58983964	     49.28900290	     -4.56995367	     -0.21467823	     38.13187847	      0.66552683	      8.27570372	    -16.94908274	     -7.49999987	     50.29333471	     -6.65241705	      2.52265209	     40.44121331	      0.70583233	     11.46371030	     -8.88774632	     -7.49999987	    -11.65541792	      2.00348081	     -2.83222940	     16.37689390	    -22.86326918	     17.42232549	    129.60353748	    103.66284879	     12.60299836	    -22.15161697	      6.38886500	    125.79087041	    101.78437451
      5.72000000	    -24.73787872	     -0.92879226	     -1.51884098	     -0.28363983	      0.85904609	     -0.58967653	     51.49755904	     -4.55181078	     -0.15743264	     40.17777394	      0.70123444	      8.84302287	    -17.21805738	     -7.49999987	     52.52906883	     -6.89410727	      2.39776266	     42.43497837	      0.74063009	     12.07705983	     -8.78408464	     -7.49999987	    -11.88691952	      2.09078376	     -2.66526547	     18.04041501	    -23.11128309	     17.98106226	    129.43383042	    103.60538565	     14.24481082	    -22.67877044	      6.89045007	    125.60554538	    101.77921962
      5.73000000	    -25.18599821	     -0.99796291	     -1.61923044	     -0.28883757	      0.85212262	     -0.58933593	     53.40013034	     -4.46746370	     -0.13756652	     42.18774843	      0.73631511	      9.24453591	    -17.57315755	     -7.49999987	     54.45900313	     -7.23184392	      2.16351446	     44.45987112	      0.77597114	     12.53850846	     -8.79310766	     -7.49999987	    -12.47058319	      2.16657322	     -2.45990877	     19.75465406	    -23.23407501	     18.28780720	    129.21308554	    103.56937889	     15.92133879	    -23.13555346	      7.17007387	    125.45549734	    101.77282684
      5.74000000	    -26.02986323	     -1.01247929	     -1.72171998	     -0.29412456	      0.84421248	     -0.58889397	     55.75872777	     -4.39236679	     -0.08408648	     44.21504445	      0.77169810	     10.06077014	    -17.70673285	     -7.49999987	     56.82055675	     -7.60622045	      1.87288992	     46.49565012	      0.81150218	     14.09148934	     -7.37111093	     -7.49999987	    -12.47719157	      2.17642826	     -2.28308542	     21.46156722	    -23.52428500	     19.09688461	    128.89841044	    103.33214204	     17.53342036	    -23.78115251	      7.76759631	    125.23952379	    101.67861896
      5.75000000	    -26.38646819	     -1.02410459	     -1.75316881	     -0.29912047	      0.83689247	     -0.58881203	     57.61208491	     -4.46853857	     -0.23397409	     46.31296831	      0.80831378	     10.45812624	    -18.10818893	     -7.49999987	     58.67478735	     -7.84612637	      1.63076463	     48.53557374	      0.84710557	     14.51643695	     -7.48192802	     -7.49999987	    -13.11071074	      2.22536039	     -2.18537083	     23.21558126	    -23.64640601	     19.42974093	    128.64950148	    103.28648688	     19.20942174	    -24.21968171	      8.02835445	    125.06648677	    101.65302785
      5.76000000	    -27.08919921	     -0.98137641	     -1.71944238	     -0.30422796	      0.82896133	     -0.58878336	     59.82818927	     -4.63629922	     -0.22496199	     48.36819775	      0.84418430	     11.13946285	    -18.19081129	     -7.49999987	     60.84235771	     -7.95911450	      1.52023171	     50.42311691	      0.88004941	     15.31549506	     -7.19711954	     -7.49999987	    -13.24658537	      2.25250244	     -2.21236771	     25.06539378	    -23.81347588	     20.30825491	    128.25355327	    103.21352786	     20.81400420	    -24.83482840	      8.60275569	    124.81020135	    101.62990487
      5.77000000	    -27.34973642	     -0.99231248	     -1.73788438	     -0.30902343	      0.82147819	     -0.58864809	     61.57650337	     -4.76876266	     -0.28028342	     50.47530949	      0.88096034	     11.57849114	    -18.25911261	     -7.49999987	     62.58839509	     -8.19827306	      1.34677479	     52.44868725	      0.91540228	     15.76053227	     -7.12920845	     -7.49999987	    -13.92940943	      2.29053286	     -2.17502128	     26.84373247	    -23.77484148	     20.60208721	    127.91479655	    103.16788162	     22.43019372	    -25.23952591	      8.77012580	    124.59495842	    101.60522743
      5.78000000	    -27.88944780	     -0.84295182	     -1.74803373	     -0.31386336	      0.81334535	     -0.58841181	     63.64750203	     -5.02396873	     -0.18454385	     52.60907504	      0.91820158	     13.39781101	    -16.82349627	     -7.49999987	     64.56701302	     -8.37484677	      1.11125591	     54.39091886	      0.94930062	     17.21155240	     -5.68672953	     -7.49999987	    -14.14107957	      2.16362724	     -2.37941637	     28.93288326	    -23.72445521	     21.76127464	    127.19079733	    102.94855222	     23.82899453	    -25.95950856	      9.10352780	    124.42305979	    101.47406164
      5.79000000	    -28.25313216	     -0.66825731	     -1.74991253	     -0.31861584	      0.80541697	     -0.58819242	     65.54292760	     -5.26116220	     -0.06805097	     54.67837333	      0.95431764	     13.93217833	    -16.83002006	     -7.49999987	     66.37739173	     -8.49147877	      0.90832343	     56.32492730	      0.98305543	     17.61717430	     -5.59125708	     -7.49999987	    -14.57089750	      1.94359212	     -2.38330498	     30.65310433	    -23.67502686	     22.28993410	    126.71910129	    102.88263641	     25.54639086	    -26.46478310	      9.60270355	    124.07019022	    101.41247689
      5.80000000	    -28.48300662	     -0.48645273	     -1.66670153	     -0.32310113	      0.79753799	     -0.58820358	     67.27683453	     -5.64370828	     -0.01998914	     56.78932266	      0.99116066	     15.12964530	    -15.85436151	     -7.49999987	     68.03080467	     -8.56082218	      0.67971928	     58.23294699	      1.01635666	     18.37250616	     -4.87131792	     -7.49999987	    -15.12755871	      1.73966696	     -2.49555463	     32.34200750	    -23.56540244	     22.75949790	    126.31324725	    102.72500834	     27.24499112	    -26.96454164	     10.11192191	    123.78516027	    101.27066325
      5.81000000	    -28.65422013	     -0.39336579	     -1.61478533	     -0.32749191	      0.78961315	     -0.58829840	     68.93376744	     -5.98358828	     -0.11278463	     58.81225902	      1.02646756	     15.44166576	    -15.98227688	     -7.49999987	     69.64430928	     -8.63950960	      0.65691371	     60.17537567	      1.05025843	     18.60684321	     -4.92567989	     -7.49999987	    -15.75709452	      1.65572411	     -2.54377832	     33.91633196	    -23.39008618	     22.96537188	    126.05729121	    102.71104851	     28.81129398	    -27.28922297	     10.36942990	    123.57416755	    101.24893933
      5.82000000	    -29.02986945	     -0.28034993	     -1.65028812	     -0.33205793	      0.78132931	     -0.58790367	     70.76946772	     -6.17035659	     -0.02231265	     60.73366267	      1.06000238	     16.50953099	    -15.18552140	     -7.49999987	     71.42619451	     -8.86649812	      0.58174438	     61.98196837	      1.08178942	     19.36093265	     -4.18136027	     -7.49999987	    -16.01641140	      1.48742104	     -2.56833332	     35.69982123	    -23.33644724	     24.00983413	    125.47161551	    102.76626293	     30.49768815	    -27.94459562	     11.31725811	    123.17329473	    101.20793495
      5.83000000	    -29.15200294	     -0.29833686	     -1.73033201	     -0.33641186	      0.77329875	     -0.58739305	     72.28325182	     -6.20711232	     -0.02041701	     62.58712949	      1.09235148	     16.90154060	    -15.18197571	     -7.49999987	     72.98732350	     -9.22717930	      0.58582771	     63.85664469	      1.11450870	     19.64030903	     -4.03780837	     -7.49999987	    -16.60784572	      1.44906408	     -2.49976919	     37.23056487	    -23.08710710	     24.23871912	    125.21029682	    102.78477939	     32.06392581	    -28.21916806	     11.51921659	    122.95412372	    101.18545143
      5.84000000	    -29.52935345	     -0.10608323	     -1.43319241	     -0.34063144	      0.76453448	     -0.58808261	     74.14113559	     -6.85926618	      0.01041156	     64.62181052	      1.12786336	     18.51403036	    -13.71095442	     -7.49999987	     74.73625133	     -8.99503205	      0.64999214	     65.59960355	      1.14492907	     20.65755433	     -2.85314278	     -7.49999987	    -16.73244697	      1.37045206	     -2.79502008	     38.76412993	    -23.06269899	     24.98616515	    124.82797460	    102.97443312	     33.68361640	    -28.63432646	     12.39881985	    122.54921234	    101.14350597
